<svg width="158" height="18" viewBox="0 0 158 18" fill="none" xmlns="http://www.w3.org/2000/svg">
<path d="M151.688 15.75V14.25C151.688 12.5942 150.344 11.25 148.688 11.25H144.188C142.532 11.25 141.188 12.5942 141.188 14.25V15.75M151.688 2.34599C153.011 2.68902 153.935 3.88309 153.935 5.24999C153.935 6.61689 153.011 7.81097 151.688 8.15399M156.188 15.75V14.25C156.187 12.8828 155.262 11.6893 153.938 11.3475" stroke="#6B5A65" stroke-width="1.5" stroke-linecap="round" stroke-linejoin="round"/>
<path d="M143.438 5.25C143.438 6.90575 144.782 8.25 146.438 8.25C148.094 8.25 149.438 6.90575 149.438 5.25C149.438 3.59425 148.094 2.25 146.438 2.25C144.782 2.25 143.438 3.59425 143.438 5.25V5.25" stroke="#6B5A65" stroke-width="1.5" stroke-linecap="round" stroke-linejoin="round"/>
</svg>
