<svg width="16" height="16" viewBox="0 0 16 16" fill="none" xmlns="http://www.w3.org/2000/svg">
<path d="M9.404 3.70202C9.77922 3.88951 10.2208 3.88951 10.596 3.70202L13.0353 2.48202C13.2421 2.37867 13.4877 2.38985 13.6843 2.51157C13.8809 2.63328 14.0003 2.84815 14 3.07935V11.5887C13.9999 11.8411 13.8572 12.0718 13.6313 12.1847L10.596 13.7027C10.2208 13.8902 9.77922 13.8902 9.404 13.7027L6.596 12.2987C6.22079 12.1112 5.77922 12.1112 5.404 12.2987L2.96467 13.5187C2.75775 13.6221 2.51202 13.6108 2.31541 13.489C2.11881 13.3671 1.99943 13.152 2 12.9207V4.41202C2.00014 4.15957 2.14285 3.92886 2.36867 3.81602L5.404 2.29802C5.77922 2.11052 6.22079 2.11052 6.596 2.29802L9.404 3.70202M10 3.84268V13.8427M6 2.15735V12.1573" stroke="#141217" stroke-width="1.33333" stroke-linecap="round" stroke-linejoin="round"/>
</svg>
