<svg width="64" height="64" viewBox="0 0 64 64" fill="none" xmlns="http://www.w3.org/2000/svg">
<path d="M56 26.6667C56 45.3333 32 61.3333 32 61.3333C32 61.3333 8 45.3333 8 26.6667C8 20.3029 10.5286 14.1999 14.9794 9.74916C19.4303 5.29841 25.5333 2.66667 32 2.66667C38.4667 2.66667 44.5697 5.29841 49.0206 9.74916C53.4714 14.1999 56 20.3029 56 26.6667Z" stroke="#E11D48" stroke-width="4" stroke-linecap="round" stroke-linejoin="round"/>
<path d="M32 34.6667C36.4183 34.6667 40 31.085 40 26.6667C40 22.2484 36.4183 18.6667 32 18.6667C27.5817 18.6667 24 22.2484 24 26.6667C24 31.085 27.5817 34.6667 32 34.6667Z" stroke="#E11D48" stroke-width="4" stroke-linecap="round" stroke-linejoin="round"/>
</svg>

