<svg width="89" height="18" viewBox="0 0 89 18" fill="none" xmlns="http://www.w3.org/2000/svg">
<path d="M82.4062 15.75V14.25C82.4062 12.5943 81.0619 11.25 79.4062 11.25H74.9062C73.2504 11.25 71.9062 12.5943 71.9062 14.25V15.75M82.4062 2.34601C83.7293 2.68903 84.6533 3.88311 84.6533 5.25001C84.6533 6.61691 83.7293 7.81098 82.4062 8.15401M86.9062 15.75V14.25C86.9052 12.8828 85.9799 11.6893 84.6562 11.3475" stroke="#6B5A65" stroke-width="1.5" stroke-linecap="round" stroke-linejoin="round"/>
<path d="M74.1562 5.25C74.1562 6.90575 75.5004 8.25 77.1562 8.25C78.8119 8.25 80.1562 6.90575 80.1562 5.25C80.1562 3.59425 78.8119 2.25 77.1562 2.25C75.5004 2.25 74.1562 3.59425 74.1562 5.25V5.25" stroke="#6B5A65" stroke-width="1.5" stroke-linecap="round" stroke-linejoin="round"/>
</svg>
