<svg width="16" height="16" viewBox="0 0 16 16" fill="none" xmlns="http://www.w3.org/2000/svg">
<path d="M12.6667 11.3333H14C14.4 11.3333 14.6667 11.0666 14.6667 10.6666V8.66663C14.6667 8.06663 14.2 7.53329 13.6667 7.39996C12.4667 7.06663 10.6667 6.66663 10.6667 6.66663C10.6667 6.66663 9.80004 5.73329 9.20004 5.13329C8.86671 4.86663 8.46671 4.66663 8.00004 4.66663H3.33337C2.93337 4.66663 2.60004 4.93329 2.40004 5.26663L1.46671 7.19996C1.37843 7.45744 1.33337 7.72776 1.33337 7.99996V10.6666C1.33337 11.0666 1.60004 11.3333 2.00004 11.3333H3.33337" stroke="#141217" stroke-width="1.33333" stroke-linecap="round" stroke-linejoin="round"/>
<path d="M3.33337 11.3333C3.33337 12.0692 3.93082 12.6667 4.66671 12.6667C5.40259 12.6667 6.00004 12.0692 6.00004 11.3333C6.00004 10.5974 5.40259 10 4.66671 10C3.93082 10 3.33337 10.5974 3.33337 11.3333V11.3333" stroke="#141217" stroke-width="1.33333" stroke-linecap="round" stroke-linejoin="round"/>
<path d="M6 11.3333H10" stroke="#141217" stroke-width="1.33333" stroke-linecap="round" stroke-linejoin="round"/>
<path d="M10 11.3333C10 12.0692 10.5974 12.6667 11.3333 12.6667C12.0692 12.6667 12.6667 12.0692 12.6667 11.3333C12.6667 10.5974 12.0692 10 11.3333 10C10.5974 10 10 10.5974 10 11.3333V11.3333" stroke="#141217" stroke-width="1.33333" stroke-linecap="round" stroke-linejoin="round"/>
</svg>
