<svg width="32" height="32" viewBox="0 0 32 32" fill="none" xmlns="http://www.w3.org/2000/svg">
<rect width="32" height="32" rx="16" fill="white" fill-opacity="0.9"/>
<rect x="0.5" y="0.5" width="31" height="31" rx="15.5" stroke="#141217" stroke-opacity="0.12"/>
<path d="M8.5 14.125C8.50003 12.4164 9.55333 10.8847 11.1487 10.2733C12.7441 9.66179 14.5513 10.0971 15.6933 11.368C15.7727 11.4529 15.8837 11.5011 16 11.5011C16.1163 11.5011 16.2273 11.4529 16.3067 11.368C17.4453 10.0886 19.257 9.64764 20.8562 10.2606C22.4554 10.8735 23.5082 12.4123 23.5 14.125C23.5 15.8425 22.375 17.125 21.25 18.25L17.131 22.2347C16.8483 22.5594 16.4397 22.747 16.0092 22.7497C15.5787 22.7524 15.1678 22.57 14.881 22.249L10.75 18.25C9.625 17.125 8.5 15.85 8.5 14.125" stroke="#141217" stroke-width="1.5" stroke-linecap="round" stroke-linejoin="round"/>
</svg>
