<svg width="56" height="56" viewBox="0 0 56 56" fill="none" xmlns="http://www.w3.org/2000/svg">
<rect width="56" height="56" rx="28" fill="#FFE3EF"/>
<path d="M26 36L24.75 33.5L22 34M26 20L24.75 22.5L22 22M30 36L31.25 33.5L34 34M30 20L31.25 22.5L34 22" stroke="#141217" stroke-width="2" stroke-linecap="round" stroke-linejoin="round"/>
<path d="M33 37L30 31H26M33 19L30 25L31.5 28M18 28H24.5L26 25M36 26L34.5 28L36 30" stroke="#141217" stroke-width="2" stroke-linecap="round" stroke-linejoin="round"/>
<path d="M38 28H31.5L30 31M20 26L21.5 28L20 30M23 37L26 31L24.5 28M23 19L26 25H30" stroke="#141217" stroke-width="2" stroke-linecap="round" stroke-linejoin="round"/>
</svg>
