<svg width="56" height="56" viewBox="0 0 56 56" fill="none" xmlns="http://www.w3.org/2000/svg">
<rect width="56" height="56" rx="28" fill="#FFE3EF"/>
<path d="M26 26V26.2C27.3534 26.7205 28.1408 28.1344 27.8706 29.5591C27.6005 30.9837 26.35 32.0112 24.9 32H21C19.5684 31.9644 18.3615 30.9219 18.1182 29.5106C17.8749 28.0994 18.663 26.713 20 26.2V26C20 24.3443 21.3442 23 23 23C24.6557 23 26 24.3443 26 26M23 32V38M29 35V38" stroke="#141217" stroke-width="2" stroke-linecap="round" stroke-linejoin="round"/>
<path d="M28 35H36.3C36.7001 34.9944 37.0583 34.7508 37.2106 34.3808C37.363 34.0109 37.2801 33.5857 37 33.3L34 30H34.3C34.7001 29.9944 35.0583 29.7508 35.2106 29.3808C35.363 29.0109 35.2801 28.5857 35 28.3L32 25H32.2C32.6184 25.0377 33.0158 24.81 33.1946 24.4298C33.3735 24.0497 33.2957 23.5983 33 23.3L29 19L27.6 20.5" stroke="#141217" stroke-width="2" stroke-linecap="round" stroke-linejoin="round"/>
</svg>
