<svg width="16" height="16" viewBox="0 0 16 16" fill="none" xmlns="http://www.w3.org/2000/svg">
<path d="M13.3333 6.66659C13.3333 9.99525 9.64066 13.4619 8.40066 14.5326C8.16335 14.711 7.83663 14.711 7.59932 14.5326C6.35932 13.4619 2.66666 9.99525 2.66666 6.66659C2.66666 3.72304 5.05644 1.33325 7.99999 1.33325C10.9435 1.33325 13.3333 3.72304 13.3333 6.66659" stroke="#141217" stroke-width="1.33333" stroke-linecap="round" stroke-linejoin="round"/>
<path d="M6 6.6665C6 7.77033 6.89617 8.6665 8 8.6665C9.10383 8.6665 10 7.77033 10 6.6665C10 5.56267 9.10383 4.6665 8 4.6665C6.89617 4.6665 6 5.56267 6 6.6665V6.6665" stroke="#141217" stroke-width="1.33333" stroke-linecap="round" stroke-linejoin="round"/>
</svg>
