<svg width="56" height="56" viewBox="0 0 56 56" fill="none" xmlns="http://www.w3.org/2000/svg">
<rect width="56" height="56" rx="28" fill="#FFE3EF"/>
<path d="M35 33H37C37.6 33 38 32.6 38 32V29C38 28.1 37.3 27.3 36.5 27.1C34.7 26.6 32 26 32 26C32 26 30.7 24.6 29.8 23.7C29.3 23.3 28.7 23 28 23H21C20.4 23 19.9 23.4 19.6 23.9L18.2 26.8C18.0676 27.1862 18 27.5917 18 28V32C18 32.6 18.4 33 19 33H21" stroke="#141217" stroke-width="2" stroke-linecap="round" stroke-linejoin="round"/>
<path d="M21 33C21 34.1038 21.8962 35 23 35C24.1038 35 25 34.1038 25 33C25 31.8962 24.1038 31 23 31C21.8962 31 21 31.8962 21 33V33" stroke="#141217" stroke-width="2" stroke-linecap="round" stroke-linejoin="round"/>
<path d="M25 33H31" stroke="#141217" stroke-width="2" stroke-linecap="round" stroke-linejoin="round"/>
<path d="M31 33C31 34.1038 31.8962 35 33 35C34.1038 35 35 34.1038 35 33C35 31.8962 34.1038 31 33 31C31.8962 31 31 31.8962 31 33V33" stroke="#141217" stroke-width="2" stroke-linecap="round" stroke-linejoin="round"/>
</svg>
