<svg width="18" height="18" viewBox="0 0 18 18" fill="none" xmlns="http://www.w3.org/2000/svg">
<path d="M8.64375 1.72123C8.7108 1.58578 8.84886 1.50006 9 1.50006C9.15114 1.50006 9.2892 1.58578 9.35625 1.72123L11.0887 5.23048C11.3201 5.69959 11.7674 6.0249 12.285 6.10048L16.1595 6.66748C16.3093 6.68918 16.4337 6.79403 16.4805 6.93794C16.5273 7.08184 16.4883 7.23984 16.38 7.34548L13.578 10.074C13.2025 10.4393 13.0311 10.9662 13.1198 11.4825L13.7812 15.3375C13.8077 15.4872 13.7464 15.6389 13.6234 15.7282C13.5004 15.8176 13.3372 15.8289 13.203 15.7575L9.7395 13.9365C9.2763 13.693 8.72295 13.693 8.25975 13.9365L4.797 15.7575C4.66285 15.8285 4.49997 15.8169 4.37722 15.7276C4.25447 15.6384 4.19327 15.487 4.2195 15.3375L4.88025 11.4832C4.96912 10.9667 4.7977 10.4395 4.422 10.074L1.62 7.34623C1.51073 7.2407 1.47117 7.08212 1.51806 6.93762C1.56495 6.79313 1.69009 6.688 1.8405 6.66673L5.71425 6.10048C6.23239 6.02536 6.68034 5.69999 6.912 5.23048L8.64375 1.72123" stroke="#141217" stroke-width="1.5" stroke-linecap="round" stroke-linejoin="round"/>
</svg>
